<?xml version="1.0" encoding="UTF-8"?>
<svg width="32px" height="32px" viewBox="0 0 32 32" version="1.1" xmlns="http://www.w3.org/2000/svg" xmlns:xlink="http://www.w3.org/1999/xlink">
    <!-- Generator: Sketch 42 (36781) - http://www.bohemiancoding.com/sketch -->
    <title>icon</title>
    <desc>Created with Sketch.</desc>
    <defs></defs>
    <g id="Page-1" stroke="none" stroke-width="1" fill="none" fill-rule="evenodd">
        <g id="webfronten-logo" transform="translate(0.000000, -1.000000)" fill-rule="nonzero">
            <g id="Page-3">
                <g id="webfronten-designguide">
                    <g id="Group-108" transform="translate(0.000000, 0.890000)">
                        <g id="Group">
                            <g id="icon">
                                <path d="M15.9241,0.2643 C7.1541,0.2643 0.0181,7.3993 0.0181,16.1703 C0.0181,24.9403 7.1541,32.0753 15.9241,32.0753 C24.6941,32.0753 31.8301,24.9403 31.8301,16.1703 C31.8301,7.3993 24.6941,0.2643 15.9241,0.2643 M15.9241,1.1363 C24.2271,1.1363 30.9571,7.8673 30.9571,16.1703 C30.9571,24.4723 24.2271,31.2033 15.9241,31.2033 C7.6211,31.2033 0.8911,24.4723 0.8911,16.1703 C0.8911,7.8673 7.6211,1.1363 15.9241,1.1363" id="Fill-52" fill="#19A287"></path>
                                <path d="M21.2982,25.9635 C21.2512,26.1495 21.0652,26.2895 20.8792,26.2895 L20.5072,26.2895 C20.2982,26.2895 20.1582,26.1725 20.1122,26.0335 L15.9482,15.4955 L15.8312,15.4955 L11.7142,26.0335 C11.6442,26.1725 11.5512,26.2895 11.3182,26.2895 L10.9462,26.2895 C10.7602,26.2895 10.5742,26.1495 10.5272,25.9635 L6.1302,10.3305 C6.0372,10.0055 6.2242,9.7725 6.5492,9.7725 L8.6892,9.7725 C8.8762,9.7725 9.0622,9.9355 9.1082,10.0985 L11.5272,19.3805 L11.6212,19.3805 L15.3192,9.7955 C15.3662,9.6565 15.4822,9.5395 15.7152,9.5395 L16.1342,9.5395 C16.3662,9.5395 16.4832,9.6565 16.5292,9.7955 L20.2512,19.3805 L20.3442,19.3805 L22.7172,10.0985 C22.7642,9.9355 22.9502,9.7725 23.1362,9.7725 L25.2762,9.7725 C25.6022,9.7725 25.7882,10.0055 25.6952,10.3305 L21.2982,25.9635 Z M15.9242,2.5035 C8.3762,2.5035 2.2572,8.6225 2.2572,16.1695 C2.2572,23.7175 8.3762,29.8365 15.9242,29.8365 C23.4722,29.8365 29.5912,23.7175 29.5912,16.1695 C29.5912,8.6225 23.4722,2.5035 15.9242,2.5035 L15.9242,2.5035 Z" id="Fill-54" fill="#1CA287"></path>
                            </g>
                        </g>
                    </g>
                </g>
            </g>
        </g>
    </g>
</svg>